HIERARCHY
ROOT hip
{
  OFFSET 0 0 0
  CHANNELS 6 Xposition Yposition Zposition Zrotation Yrotation Xrotation
  JOINT abdomen
  {
    OFFSET 0 20.6881 -0.73152
    CHANNELS 3 Zrotation Xrotation Yrotation
    JOINT chest
    {
      OFFSET 0 11.7043 -0.48768
      CHANNELS 3 Zrotation Xrotation Yrotation
      JOINT neck
      {
        OFFSET 0 22.1894 -2.19456
        CHANNELS 3 Zrotation Xrotation Yrotation
        JOINT head
        {
          OFFSET -0.24384 7.07133 1.2192
          CHANNELS 3 Zrotation Xrotation Yrotation
          JOINT leftEye
          {
            OFFSET 4.14528 8.04674 8.04672
            CHANNELS 3 Zrotation Xrotation Yrotation
            End Site
            {
              OFFSET 1 0 0
            }
          }
          JOINT rightEye
          {
            OFFSET -3.6576 8.04674 8.04672
            CHANNELS 3 Zrotation Xrotation Yrotation
            End Site
            {
              OFFSET 1 0 0
            }
          }
        }
      }
      JOINT rCollar
      {
        OFFSET -2.68224 19.2634 -4.8768
        CHANNELS 3 Zrotation Xrotation Yrotation
        JOINT rShldr
        {
          OFFSET -8.77824 -1.95073 1.46304
          CHANNELS 3 Zrotation Xrotation Yrotation
          JOINT rForeArm
          {
            OFFSET -28.1742 -1.7115 0.48768
            CHANNELS 3 Zrotation Xrotation Yrotation
            JOINT rHand
            {
              OFFSET -22.5879 0.773209 7.07136
              CHANNELS 3 Zrotation Xrotation Yrotation
              JOINT rThumb1
              {
                OFFSET -1.2192 -0.487915 3.41376
                CHANNELS 3 Zrotation Xrotation Yrotation
                JOINT rThumb2
                {
                  OFFSET -3.37035 -0.52449 3.41376
                  CHANNELS 3 Zrotation Xrotation Yrotation
                  End Site
                  {
                    OFFSET -1.78271 -1.18214 1.43049
                  }
                }
              }
              JOINT rIndex1
              {
                OFFSET -7.75947 0.938293 5.60832
                CHANNELS 3 Zrotation Xrotation Yrotation
                JOINT rIndex2
                {
                  OFFSET -2.54057 -0.884171 1.56538
                  CHANNELS 3 Zrotation Xrotation Yrotation
                  End Site
                  {
                    OFFSET -1.62519 -0.234802 1.16502
                  }
                }
              }
              JOINT rMid1
              {
                OFFSET -8.24714 1.18213 3.41376
                CHANNELS 3 Zrotation Xrotation Yrotation
                JOINT rMid2
                {
                  OFFSET -3.10165 -0.590103 1.0647
                  CHANNELS 3 Zrotation Xrotation Yrotation
                  End Site
                  {
                    OFFSET -2.48547 -0.328903 0.83742
                  }
                }
              }
              JOINT rRing1
              {
                OFFSET -8.82822 0.546677 1.51678
                CHANNELS 3 Zrotation Xrotation Yrotation
                JOINT rRing2
                {
                  OFFSET -2.60934 -0.819778 -0.0198488
                  CHANNELS 3 Zrotation Xrotation Yrotation
                  End Site
                  {
                    OFFSET -2.33842 -0.294052 0.168128
                  }
                }
              }
              JOINT rPinky1
              {
                OFFSET -8.27202 -0.0477905 -0.4584
                CHANNELS 3 Zrotation Xrotation Yrotation
                JOINT rPinky2
                {
                  OFFSET -1.82734 -0.647385 -0.700984
                  CHANNELS 3 Zrotation Xrotation Yrotation
                  End Site
                  {
                    OFFSET -1.69225 -0.51767 -0.607171
                  }
                }
              }
            }
          }
        }
      }
      JOINT lCollar
      {
        OFFSET 2.68224 19.2634 -4.8768
        CHANNELS 3 Zrotation Xrotation Yrotation
        JOINT lShldr
        {
          OFFSET 8.77824 -1.95073 1.46304
          CHANNELS 3 Zrotation Xrotation Yrotation
          JOINT lForeArm
          {
            OFFSET 28.1742 -1.7115 0.48768
            CHANNELS 3 Zrotation Xrotation Yrotation
            JOINT lHand
            {
              OFFSET 22.5879 0.773209 7.07136
              CHANNELS 3 Zrotation Xrotation Yrotation
              JOINT lThumb1
              {
                OFFSET 1.2192 -0.487915 3.41376
                CHANNELS 3 Zrotation Xrotation Yrotation
                JOINT lThumb2
                {
                  OFFSET 3.37035 -0.52449 3.41376
                  CHANNELS 3 Zrotation Xrotation Yrotation
                  End Site
                  {
                    OFFSET 1.78271 -1.18214 1.43049
                  }
                }
              }
              JOINT lIndex1
              {
                OFFSET 7.75947 0.938293 5.60832
                CHANNELS 3 Zrotation Xrotation Yrotation
                JOINT lIndex2
                {
                  OFFSET 2.54057 -0.884171 1.56538
                  CHANNELS 3 Zrotation Xrotation Yrotation
                  End Site
                  {
                    OFFSET 1.62519 -0.234802 1.16502
                  }
                }
              }
              JOINT lMid1
              {
                OFFSET 8.24714 1.18213 3.41376
                CHANNELS 3 Zrotation Xrotation Yrotation
                JOINT lMid2
                {
                  OFFSET 3.10165 -0.590103 1.0647
                  CHANNELS 3 Zrotation Xrotation Yrotation
                  End Site
                  {
                    OFFSET 2.48547 -0.328903 0.83742
                  }
                }
              }
              JOINT lRing1
              {
                OFFSET 8.82822 0.546677 1.51678
                CHANNELS 3 Zrotation Xrotation Yrotation
                JOINT lRing2
                {
                  OFFSET 2.60934 -0.819778 -0.0198488
                  CHANNELS 3 Zrotation Xrotation Yrotation
                  End Site
                  {
                    OFFSET 2.33842 -0.294052 0.168128
                  }
                }
              }
              JOINT lPinky1
              {
                OFFSET 8.27202 -0.0477905 -0.4584
                CHANNELS 3 Zrotation Xrotation Yrotation
                JOINT lPinky2
                {
                  OFFSET 1.82734 -0.647385 -0.700984
                  CHANNELS 3 Zrotation Xrotation Yrotation
                  End Site
                  {
                    OFFSET 1.69225 -0.51767 -0.607171
                  }
                }
              }
            }
          }
        }
      }
    }
  }
  JOINT rButtock
  {
    OFFSET -8.77824 4.35084 1.2192
    CHANNELS 3 Zrotation Xrotation Yrotation
    JOINT rThigh
    {
      OFFSET 0 -1.70687 -2.19456
      CHANNELS 3 Zrotation Xrotation Yrotation
      JOINT rShin
      {
        OFFSET 0 -36.8199 0.73152
        CHANNELS 3 Zrotation Xrotation Yrotation
        JOINT rFoot
        {
          OFFSET 0.73152 -45.1104 -5.12064
          CHANNELS 3 Zrotation Xrotation Yrotation
          End Site
          {
            OFFSET -1.1221 -3.69964 12.103
          }
        }
      }
    }
  }
  JOINT lButtock
  {
    OFFSET 8.77824 4.35084 1.2192
    CHANNELS 3 Zrotation Xrotation Yrotation
    JOINT lThigh
    {
      OFFSET 0 -1.70687 -2.19456
      CHANNELS 3 Zrotation Xrotation Yrotation
      JOINT lShin
      {
        OFFSET 0 -36.8199 0.73152
        CHANNELS 3 Zrotation Xrotation Yrotation
        JOINT lFoot
        {
          OFFSET -0.73152 -45.1104 -5.12064
          CHANNELS 3 Zrotation Xrotation Yrotation
          End Site
          {
            OFFSET 1.1221 -3.69964 12.103
          }
        }
      }
    }
  }
}
MOTION
Frames:	6
Frame Time:	0.00833333
3.704 72.4268 50.1223 -9.0377 -6.6827 0.3874 3.01807 18.4449 11.7076 0.722919 -4.7613 3.13634 0.350445 1.72078 1.21835 -3.96664 -13.4324 1.86553 -0.0 0.0 0.0 -0.0 0.0 0.0 8.58357e-14 4.14323e-14 5.52815e-14 68.4856 32.849 5.68974 -24.4639 -19.9869 51.1342 -0.00117359 0.794572 0.111682 -1.9678e-09 2.61142e-09 9.54917e-10 -3.40332e-09 4.50894e-09 1.65573e-09 -1.96779e-09 2.61141e-09 9.54911e-10 7.73091 5.47488 0.417314 -1.96779e-09 2.61142e-09 9.54913e-10 2.90554 0.965183 0.102902 -1.96779e-09 2.61141e-09 9.54914e-10 10.2786 0.731801 0.0259123 -1.9678e-09 2.61142e-09 9.54914e-10 2.22167 -0.733487 -0.20892 8.57335e-14 4.14354e-14 5.50296e-14 -97.4428 17.9549 28.0673 26.3207 -24.2865 -58.1703 0.0896964 -8.50423 1.20416 -2.53942e-10 -8.04616e-10 -1.28551e-09 -4.29091e-10 -1.38661e-09 -2.22237e-09 -2.53948e-10 -8.04618e-10 -1.2855e-09 -7.73091 5.47488 -0.417314 -2.5394e-10 -8.04619e-10 -1.28551e-09 -2.90554 0.965183 -0.102902 -2.5395e-10 -8.04617e-10 -1.28551e-09 -10.2786 0.731801 -0.0259123 -2.53938e-10 -8.04616e-10 -1.28552e-09 -2.22167 -0.733487 0.20892 -2.03217e-16 0.0 -3.88251e-19 -17.1148 16.6502 8.86893 -0.220502 42.7873 1.62305 1.84302 5.29673 -16.8968 2.03217e-16 0.0 3.88251e-19 35.603 -40.5278 -1.01976 0.207071 28.7758 -0.346702 -1.53719 18.0964 -3.40605
5.04206 71.2331 54.5181 -8.4016 -6.3431 -0.1147 2.06027 17.9547 11.5294 0.531871 -4.57139 3.02234 0.0129731 1.96514 1.14906 -2.57772 -13.1112 1.9741 -0.0 0.0 0.0 -0.0 0.0 0.0 2.88152e-14 -4.20456e-14 -5.2181e-14 70.5598 32.8668 3.36508 -24.493 -20.0394 51.2674 -0.00107314 0.554525 0.0779349 -7.49579e-10 1.12686e-09 2.79536e-10 -1.2972e-09 1.94307e-09 4.88302e-10 -7.49575e-10 1.12686e-09 2.79531e-10 7.73091 5.47488 0.417314 -7.49574e-10 1.12686e-09 2.79532e-10 2.90554 0.965183 0.102902 -7.49568e-10 1.12686e-09 2.79534e-10 10.2786 0.731801 0.0259123 -7.49585e-10 1.12686e-09 2.79537e-10 2.22167 -0.733487 -0.20892 2.86354e-14 -4.20417e-14 -5.24326e-14 -96.0349 18.1317 28.0261 26.2903 -24.2027 -58.0811 0.0860189 -8.33325 1.17958 5.09528e-11 -2.29384e-10 -4.41762e-10 9.19758e-11 -3.95209e-10 -7.65355e-10 5.09406e-11 -2.29387e-10 -4.41753e-10 -7.73091 5.47488 -0.417314 5.09535e-11 -2.29387e-10 -4.41769e-10 -2.90554 0.965183 -0.102902 5.09428e-11 -2.29385e-10 -4.41766e-10 -10.2786 0.731801 -0.0259123 5.09556e-11 -2.29384e-10 -4.41771e-10 -2.22167 -0.733487 0.20892 -2.03217e-16 0.0 -3.88251e-19 -16.5207 16.2725 9.16725 -0.302911 48.5133 1.9069 1.58267 4.6151 -15.3699 2.03217e-16 0.0 3.88251e-19 34.6991 -40.7801 -0.176771 0.278447 32.5797 -0.290698 -1.76987 12.8796 -3.3161
6.4147 69.8453 58.774 -7.6926 -5.8864 -0.7055 1.04813 17.6759 11.1531 0.39726 -4.51637 2.85986 -0.332098 2.14696 1.07182 -1.26062 -12.8725 2.05776 -0.0 0.0 0.0 -0.0 0.0 0.0 -3.52141e-14 -1.2279e-13 -1.67483e-13 72.6377 32.6132 1.06715 -24.4826 -20.0179 51.2389 -0.000687536 0.292284 0.0410713 5.13109e-10 -4.98422e-10 -3.78835e-10 8.85718e-10 -8.65254e-10 -6.5018e-10 5.13109e-10 -4.98414e-10 -3.7884e-10 7.73091 5.47488 0.417314 5.13109e-10 -4.98412e-10 -3.78839e-10 2.90554 0.965183 0.102902 5.13119e-10 -4.98417e-10 -3.78836e-10 10.2786 0.731801 0.0259123 5.13102e-10 -4.98414e-10 -3.78831e-10 2.22167 -0.733487 -0.20892 -3.54687e-14 -1.22786e-13 -1.67733e-13 -94.4435 18.4865 27.5074 26.2399 -24.0654 -57.8626 0.0810571 -8.09534 1.14543 3.7896e-10 4.47263e-10 3.98514e-10 6.52966e-10 7.71782e-10 6.85823e-10 3.78943e-10 4.4726e-10 3.98525e-10 -7.73091 5.47488 -0.417314 3.7896e-10 4.4726e-10 3.98505e-10 -2.90554 0.965183 -0.102902 3.78949e-10 4.47263e-10 3.98509e-10 -10.2786 0.731801 -0.0259123 3.78962e-10 4.47264e-10 3.98505e-10 -2.22167 -0.733487 0.20892 -2.03217e-16 0.0 -3.88251e-19 -15.6322 15.435 8.81599 -0.482318 54.6586 2.27975 1.34271 3.89061 -13.6878 2.03217e-16 0.0 3.88251e-19 33.4379 -41.5604 0.937928 0.365928 37.659 -0.258407 -2.00992 6.58673 -3.16919
7.83446 68.3438 62.955 -6.6649 -5.0759 -1.5941 -0.41711 17.7826 10.6307 0.510156 -4.62835 2.6497 -0.655439 2.2454 0.942724 -0.065729 -12.837 2.02389 -0.0 0.0 0.0 -0.0 0.0 0.0 -6.84345e-14 -1.55851e-13 -2.28851e-13 74.6321 31.9613 -0.86062 -24.3669 -19.7986 50.7914 -8.48512e-06 -0.0831825 -0.0116905 1.17288e-09 -1.33191e-09 -7.16929e-10 2.0262e-09 -2.3045e-09 -1.23543e-09 1.17288e-09 -1.3319e-09 -7.16935e-10 7.73091 5.47488 0.417314 1.17288e-09 -1.3319e-09 -7.16932e-10 2.90554 0.965183 0.102902 1.17289e-09 -1.3319e-09 -7.16929e-10 10.2786 0.731801 0.0259123 1.17288e-09 -1.3319e-09 -7.16922e-10 2.22167 -0.733487 -0.20892 -6.87315e-14 -1.55846e-13 -2.29099e-13 -92.5569 18.8459 26.0942 26.1259 -23.7623 -57.2944 0.0771409 -7.89897 1.11729 5.62423e-10 9.19511e-10 7.77464e-10 9.673e-10 1.58744e-09 1.34036e-09 5.62404e-10 9.19508e-10 7.77477e-10 -7.73091 5.47488 -0.417314 5.62423e-10 9.19509e-10 7.77455e-10 -2.90554 0.965183 -0.102902 5.62411e-10 9.19511e-10 7.7746e-10 -10.2786 0.731801 -0.0259123 5.62425e-10 9.19513e-10 7.77455e-10 -2.22167 -0.733487 0.20892 -2.03217e-16 0.0 -3.88251e-19 -14.4766 13.9554 7.39921 -0.784743 60.77 2.72179 1.06408 2.8511 -12.2018 2.03217e-16 0.0 3.88251e-19 31.838 -42.5569 1.64012 0.478782 42.5484 -0.256277 -2.23911 1.11335 -3.63309
9.16629 66.7131 66.9125 -5.7299 -3.5711 -2.7515 -2.54905 18.5076 9.79763 1.03124 -4.99953 2.3428 -0.970163 2.23298 0.739222 1.00493 -13.1031 1.83173 -0.0 0.0 0.0 -0.0 0.0 0.0 -5.58659e-14 -1.12304e-13 -2.08789e-13 76.5871 30.6809 -2.38059 -24.0999 -19.2826 49.9038 -0.00164132 -0.506887 -0.0713771 9.0964e-10 -9.26822e-10 -5.47222e-10 1.57061e-09 -1.60176e-09 -9.43535e-10 9.09638e-10 -9.2681e-10 -5.47232e-10 7.73091 5.47488 0.417314 9.09636e-10 -9.26812e-10 -5.47224e-10 2.90554 0.965183 0.102902 9.09649e-10 -9.26814e-10 -5.47223e-10 10.2786 0.731801 0.0259123 9.09634e-10 -9.26812e-10 -5.47217e-10 2.22167 -0.733487 -0.20892 -5.61623e-14 -1.123e-13 -2.09036e-13 -90.1761 19.2284 23.4263 25.8853 -23.1487 -56.1547 0.0739914 -7.73785 1.09421 5.43012e-10 1.13894e-09 4.10475e-10 9.36091e-10 1.96947e-09 7.06831e-10 5.42994e-10 1.13894e-09 4.10487e-10 -7.73091 5.47488 -0.417314 5.43012e-10 1.13894e-09 4.10466e-10 -2.90554 0.965183 -0.102902 5.43e-10 1.13894e-09 4.1047e-10 -10.2786 0.731801 -0.0259123 5.43015e-10 1.13895e-09 4.10464e-10 -2.22167 -0.733487 0.20892 -2.03217e-16 0.0 -3.88251e-19 -13.2189 11.8722 4.5924 -1.23589 67.1181 3.26514 0.738158 1.36553 -10.8712 2.03217e-16 0.0 3.88251e-19 29.6111 -44.1781 1.64957 0.664429 47.5277 -0.306756 -2.66999 -3.30018 -5.04554
10.603 65.2324 70.3822 -2.6876 -1.2517 -3.5376 -5.05944 19.6965 8.67565 1.81539 -5.58499 1.95477 -1.28615 2.12808 0.488387 1.9708 -13.5841 1.53528 -0.0 0.0 0.0 -0.0 0.0 0.0 -1.93095e-14 -2.17694e-14 -1.43917e-13 78.4726 28.9255 -3.6321 -23.6985 -18.5237 48.7131 -0.00513261 -0.960031 -0.135312 1.17806e-10 1.53466e-10 -6.70081e-11 2.00951e-10 2.69092e-10 -1.1548e-10 1.17806e-10 1.53474e-10 -6.70234e-11 7.73091 5.47488 0.417314 1.17803e-10 1.53472e-10 -6.70081e-11 2.90554 0.965183 0.102902 1.17815e-10 1.5347e-10 -6.70113e-11 10.2786 0.731801 0.0259123 1.17803e-10 1.53473e-10 -6.70067e-11 2.22167 -0.733487 -0.20892 -1.9579e-14 -2.17667e-14 -1.44162e-13 -87.3934 19.6494 19.7939 25.5178 -22.265 -54.6411 0.0707065 -7.56588 1.0696 4.14684e-10 1.25762e-09 -4.04091e-10 7.19669e-10 2.17947e-09 -6.99493e-10 4.14671e-10 1.25761e-09 -4.04082e-10 -7.73091 5.47488 -0.417314 4.14684e-10 1.25761e-09 -4.041e-10 -2.90554 0.965183 -0.102902 4.14673e-10 1.25762e-09 -4.04096e-10 -10.2786 0.731801 -0.0259123 4.14689e-10 1.25762e-09 -4.04105e-10 -2.22167 -0.733487 0.20892 -2.03217e-16 0.0 -3.88251e-19 -12.0717 9.19606 0.748995 -2.05923 73.813 4.16558 0.424018 -0.403771 -9.5578 2.03217e-16 0.0 3.88251e-19 26.8145 -46.4285 1.34447 0.933624 53.1548 -0.423087 -3.4336 -7.55392 -7.01831
